<svg width="14" height="14" viewBox="0 0 14 14" fill="none" xmlns="http://www.w3.org/2000/svg">
<path d="M12.9504 3.24362C10.8595 -0.00132715 6.57754 -0.962791 3.26605 1.05027C0.0345968 3.06334 -1.00587 7.45002 1.08507 10.685L1.25515 10.9453L0.554831 13.5693L3.17601 12.8683L3.43613 13.0385C4.56664 13.6495 5.79719 14 7.01774 14C8.32833 14 9.63892 13.6495 10.7694 12.9484C14.0009 10.8452 14.9613 6.54865 12.9504 3.22359V3.24362ZM11.1196 9.9939C10.7694 10.5147 10.3292 10.8652 9.71896 10.9554C9.3688 10.9554 8.9286 11.1256 7.18782 10.4346C5.70715 9.7335 4.4766 8.59176 3.60621 7.27976C3.08597 6.66883 2.81585 5.87763 2.73581 5.08642C2.73581 4.38535 2.99593 3.77442 3.43613 3.33375C3.60621 3.16349 3.78629 3.07336 3.95636 3.07336H4.39656C4.56664 3.07336 4.74672 3.07336 4.83676 3.42389C5.00684 3.86456 5.44703 4.91616 5.44703 5.0063C5.53707 5.09644 5.49706 5.76746 5.09688 6.14804C4.87678 6.39842 4.83676 6.40844 4.9268 6.58871C5.27696 7.1095 5.71716 7.64031 6.14735 8.08098C6.66758 8.52166 7.19782 8.87219 7.8081 9.13259C7.97817 9.22272 8.15825 9.22272 8.2483 9.04245C8.33834 8.87219 8.76853 8.43152 8.94861 8.25124C9.11869 8.08098 9.20873 8.08098 9.38881 8.16111L10.7894 8.86217C10.9595 8.95231 11.1396 9.03243 11.2296 9.12257C11.3197 9.38297 11.3197 9.7335 11.1396 9.9939H11.1196Z" fill="#252524"/>
</svg>
